<?xml version="1.0" encoding="UTF-8"?>
<svg version="1.1" xmlns="http://www.w3.org/2000/svg" width="512" height="512">
<path d="M0 0 C3.51888734 2.82561401 6.76906735 5.85204475 10 9 C10.83402344 9.77214844 11.66804688 10.54429688 12.52734375 11.33984375 C19.0731813 17.56292814 24.18672178 24.40730963 29 32 C29.39155273 32.60634277 29.78310547 33.21268555 30.18652344 33.83740234 C41.04815545 50.80377918 49.31514478 69.68405547 55 89 C61.95803656 88.27780858 68.8221564 87.26639534 75.71875 86.10546875 C105.71419455 81.20522286 145.41725729 79.82993789 171.54296875 98.08984375 C185.6438341 109.05220171 193.41612705 120.55094878 195.7421875 138.50390625 C198.60749204 177.35917232 174.03473914 211.92846644 150 240 C149.34 240.66 148.68 241.32 148 242 C148.53271056 246.62795961 151.76894978 249.54011854 154.6875 252.9375 C176.17876554 278.76356639 198.07327397 312.87077116 195 348 C193.02819176 362.70640315 187.37775225 375.99892723 175.37109375 385.25585938 C168.70570736 390.06477909 162.01588308 393.92692679 154 396 C153.34 392.04 152.68 388.08 152 384 C152.845625 383.57589844 153.69125 383.15179688 154.5625 382.71484375 C167.19596129 376.18277001 175.7493279 369.2468525 180.875 355.5625 C186.94604425 332.44163688 176.77118742 309.61382017 165.5480957 289.87060547 C159.0653064 278.79657859 151.21358769 268.8275417 143 259 C141.66272031 257.3364981 140.32824253 255.67072659 139 254 C135.64956603 255.45188594 133.49513804 257.2819659 130.953125 259.88671875 C130.19 260.66080078 129.426875 261.43488281 128.640625 262.23242188 C127.85171875 263.04259766 127.0628125 263.85277344 126.25 264.6875 C120.68771669 270.37493468 115.07759757 275.86381924 109 281 C108.36384766 281.54261475 107.72769531 282.08522949 107.07226562 282.64428711 C105.77499599 283.74445145 104.47252477 284.83851037 103.16503906 285.92651367 C101.74879267 287.10564557 100.34252797 288.29682916 98.94433594 289.49731445 C95.14569061 292.6927467 91.52891052 295.36351031 87.0703125 297.56640625 C80.46475629 301.01422314 75.27758513 304.16032436 72.828125 311.52197266 C70.95094557 319.58791482 70.35403065 327.90075207 69.66816711 336.13562012 C69.00316173 343.83826656 67.5742403 351.25831402 65.9375 358.8125 C65.70321289 359.94171875 65.46892578 361.0709375 65.22753906 362.234375 C63.5143282 370.27236851 61.33835982 378.12532733 59 386 C59.66547852 386.05631592 60.33095703 386.11263184 61.01660156 386.1706543 C67.12966614 386.70032666 73.00130439 387.71456523 79 389 C78.67 392.63 78.34 396.26 78 400 C70.1812896 399.53430878 62.63600985 398.77541538 55 397 C54.87625 397.56203125 54.7525 398.1240625 54.625 398.703125 C46.29344069 432.6542292 25.53314012 472.18635559 -4.8894043 491.16308594 C-17.63471209 498.69757526 -32.11931863 501.141225 -46.65234375 498.28125 C-73.00386726 490.51052725 -90.79095404 469.5893427 -103.67211914 446.30688477 C-123 410.47324128 -123 410.47324128 -123 399 C-123.97582031 399.2165625 -124.95164063 399.433125 -125.95703125 399.65625 C-127.86548828 400.07390625 -127.86548828 400.07390625 -129.8125 400.5 C-131.07707031 400.7784375 -132.34164062 401.056875 -133.64453125 401.34375 C-137 402 -137 402 -140 402 C-140 398.04 -140 394.08 -140 390 C-135.71 389.34 -131.42 388.68 -127 388 C-127.59941406 386.10894531 -128.19882813 384.21789062 -128.81640625 382.26953125 C-130.80504425 375.79267815 -132.47528169 369.30135812 -133.9375 362.6875 C-134.31600098 360.98388306 -134.31600098 360.98388306 -134.70214844 359.24584961 C-137.27247554 347.31414609 -139.12911595 335.29021836 -140.921875 323.22265625 C-141.1087085 322.00505615 -141.29554199 320.78745605 -141.48803711 319.53295898 C-141.82234356 317.22597345 -142.11421678 314.91232879 -142.35766602 312.59399414 C-143.06839806 305.95691438 -143.06839806 305.95691438 -146.87109375 300.73828125 C-148.03608467 299.89574318 -149.22651879 299.08748307 -150.4375 298.3125 C-151.71826077 297.40218422 -152.99820044 296.49071218 -154.27734375 295.578125 C-154.91140137 295.14306641 -155.54545898 294.70800781 -156.19873047 294.25976562 C-158.73760029 292.48413967 -161.11517853 290.53859648 -163.5 288.5625 C-164.38300781 287.83417969 -165.26601562 287.10585938 -166.17578125 286.35546875 C-167.10777344 285.57816406 -168.03976563 284.80085938 -169 284 C-169.77996338 283.3495874 -169.77996338 283.3495874 -170.57568359 282.68603516 C-178.51779459 276.03753445 -186.17265972 269.13410932 -193.6706543 261.98779297 C-194.62645386 261.07924561 -194.62645386 261.07924561 -195.6015625 260.15234375 C-196.44195068 259.3478479 -196.44195068 259.3478479 -197.29931641 258.52709961 C-199.11930686 256.89287045 -201.02417498 255.4401773 -203 254 C-225.51131635 279.48032855 -248.65076398 311.66545277 -248.26953125 347.05078125 C-247.45778816 358.94458217 -242.65942204 369.16886428 -233.64453125 377.0625 C-227.88058578 381.3144407 -221.60164454 384.27650786 -215 387 C-214.91840426 391.16138263 -215.01751476 394.9472484 -216 399 C-227.96980144 397.45550949 -241.26196587 389.02692301 -248.80859375 379.78515625 C-259.54988203 365.16314446 -262.67881598 350.03715882 -260.53515625 332.11328125 C-255.71816727 300.95242497 -236.71921722 274.0214274 -216.91015625 250.4375 C-215.04255953 248.05430909 -213.49720849 245.62832838 -212 243 C-212.71349609 242.26523437 -212.71349609 242.26523437 -213.44140625 241.515625 C-238.59689662 214.64604044 -262.68348389 178.19468803 -262 140 C-261.0490393 125.21840036 -255.30485375 112.33467369 -244.82421875 101.81640625 C-221.00542924 81.28020621 -187.20516341 80.18946144 -157.37451172 82.25048828 C-145.74795521 83.31794707 -134.28194488 84.95593865 -123 88 C-122.83781982 87.33572998 -122.67563965 86.67145996 -122.50854492 85.98706055 C-120.70197026 78.94875415 -118.25994299 72.44542194 -115.3125 65.8125 C-114.89677734 64.86052734 -114.48105469 63.90855469 -114.05273438 62.92773438 C-113.04183751 60.61545305 -112.02424263 58.3063927 -111 56 C-105.95749572 56 -104.22094347 57.40249632 -100 60 C-102.2587106 67.01076241 -104.84923108 73.84739508 -107.5703125 80.68945312 C-107.869375 81.44806641 -108.1684375 82.20667969 -108.4765625 82.98828125 C-108.74549316 83.66415283 -109.01442383 84.34002441 -109.29150391 85.03637695 C-110.0018273 87.00506442 -110.52844465 88.96218692 -111 91 C-109.9584375 91.0825 -108.916875 91.165 -107.84375 91.25 C-101.5265153 92.04796649 -95.55307223 94.0888395 -89.5 96 C-88.86671783 96.19841492 -88.23343567 96.39682983 -87.58096313 96.60125732 C-71.07009711 101.78404967 -54.6042435 107.4480999 -38.99291992 114.96923828 C-34.23959198 117.18449724 -30.43171953 117.77515025 -25.37988281 116.16479492 C-24.49655273 115.77396729 -23.61322266 115.38313965 -22.703125 114.98046875 C-21.16567627 114.32014648 -21.16567627 114.32014648 -19.59716797 113.64648438 C-17.94031982 112.92428711 -17.94031982 112.92428711 -16.25 112.1875 C-1.29670395 105.86470056 14.02079916 100.94376664 29.50488281 96.1015625 C33.68745052 94.78333496 37.84628117 93.40615871 42 92 C33.35896478 66.90426543 23.0992716 41.88966717 5 22 C4.28328125 21.20207031 3.5665625 20.40414062 2.828125 19.58203125 C-6.71952438 9.47574281 -19.12130341 1.90696845 -33.24609375 0.88671875 C-38.96146549 1.12181915 -44.47647174 2.59476989 -50 4 C-50.79664063 4.19851562 -51.59328125 4.39703125 -52.4140625 4.6015625 C-52.93742188 4.73304687 -53.46078125 4.86453125 -54 5 C-54.50660156 4.25943359 -54.50660156 4.25943359 -55.0234375 3.50390625 C-55.69246094 2.54291016 -55.69246094 2.54291016 -56.375 1.5625 C-56.81585938 0.92441406 -57.25671875 0.28632813 -57.7109375 -0.37109375 C-58.92160853 -2.13740928 -58.92160853 -2.13740928 -61 -3 C-61 -3.66 -61 -4.32 -61 -5 C-58.93950145 -5.81756238 -56.87651147 -6.62884734 -54.8125 -7.4375 C-53.66394531 -7.88996094 -52.51539063 -8.34242187 -51.33203125 -8.80859375 C-33.97506481 -15.01477753 -14.69133665 -10.35350466 0 0 Z M-233 108 C-233.63421875 108.43828125 -234.2684375 108.8765625 -234.921875 109.328125 C-243.76541163 116.13686559 -248.45841398 126.14007709 -250 137 C-251.67489977 153.35120896 -246.08887006 168.56322243 -239 183 C-238.70109863 183.62084473 -238.40219727 184.24168945 -238.09423828 184.88134766 C-229.21825819 203.13735215 -216.44049401 218.91725913 -203 234 C-199.78890334 232.59162427 -197.70400951 230.91964364 -195.27734375 228.40234375 C-194.57971924 227.68780029 -193.88209473 226.97325684 -193.16333008 226.23706055 C-192.42880615 225.47820557 -191.69428223 224.71935059 -190.9375 223.9375 C-185.4170449 218.32485254 -179.92900452 213.01733284 -173.7265625 208.1640625 C-171.6698373 206.53164737 -169.68460824 204.87639476 -167.7109375 203.1484375 C-167.134646 202.64417236 -166.55835449 202.13990723 -165.96459961 201.62036133 C-164.78414654 200.5855391 -163.60525858 199.54892866 -162.42797852 198.51049805 C-159.42687606 195.91130316 -156.42507785 193.55630075 -153.06640625 191.43359375 C-152.42743408 191.02165771 -151.78846191 190.60972168 -151.13012695 190.18530273 C-149.92138732 189.42326781 -148.69257174 188.69173954 -147.44213867 188.00024414 C-144.58364526 186.18824155 -143.25432305 184.83134534 -142.24902344 181.54516602 C-141.70558448 178.36934493 -141.34022621 175.20387282 -141 172 C-140.65067229 169.59096958 -140.29086721 167.18344063 -139.921875 164.77734375 C-139.73351074 163.50995361 -139.54514648 162.24256348 -139.35107422 160.93676758 C-137.08935911 145.8312253 -134.24470902 130.96063867 -130.72949219 116.08837891 C-129.9145932 112.63842166 -129.11635834 109.18482241 -128.3203125 105.73046875 C-128.06781738 104.63500732 -127.81532227 103.5395459 -127.55517578 102.41088867 C-127.37196777 101.61529541 -127.18875977 100.81970215 -127 100 C-130.44198805 98.80255907 -133.75367281 97.74803248 -137.35546875 97.18359375 C-138.14373047 97.05919922 -138.93199219 96.93480469 -139.74414062 96.80664062 C-140.55044922 96.68482422 -141.35675781 96.56300781 -142.1875 96.4375 C-142.97447266 96.31181641 -143.76144531 96.18613281 -144.57226562 96.05664062 C-173.57415551 91.56405265 -207.88912975 90.47658695 -233 108 Z M59 101 C59.67925479 108.19833653 61.43175278 114.99756804 63.1875 122 C65.46508333 131.14031668 67.25075514 140.15307432 68.33984375 149.515625 C68.44916733 150.40624634 68.55849091 151.29686768 68.67112732 152.21447754 C69.20970603 156.61273344 69.6912945 161.00384992 70.07885742 165.41796875 C70.87746475 172.82704562 71.55132382 178.63503139 77.5335083 183.5796051 C80.27062745 185.55325106 83.09557356 187.27982545 86 189 C87.28682314 189.95059156 88.55999155 190.92065932 89.8046875 191.92578125 C90.81789063 192.71339844 91.83109375 193.50101562 92.875 194.3125 C108.4313321 206.51160359 123.18490818 219.86362697 137 234 C141.02918113 232.65693962 142.64923661 229.95430523 145.125 226.6875 C145.85360229 225.74015991 145.85360229 225.74015991 146.59692383 224.77368164 C147.59373523 223.47464811 148.58730237 222.17311876 149.57763672 220.86914062 C150.85471973 219.19091413 152.14710781 217.52436051 153.44140625 215.859375 C158.81961907 208.86302162 163.57070974 201.63065847 168 194 C168.33918457 193.42411133 168.67836914 192.84822266 169.02783203 192.25488281 C179.3151317 174.64023994 187.32808739 153.42771103 182.875 132.875 C179.48392839 120.88904642 172.3435678 112.54259817 161.8046875 106.0234375 C130.63018979 89.33549453 92.19792201 94.26930134 59 101 Z M-115 102 C-117.87284435 109.02541028 -119.65785117 116.17789764 -121.375 123.5625 C-121.52485352 124.20385895 -121.67470703 124.8452179 -121.82910156 125.50601196 C-124.26612244 136.00483116 -126.27191078 146.55004241 -128 157.1875 C-128.11172546 157.86370392 -128.22345093 158.53990784 -128.33856201 159.23660278 C-129.90122199 166.68056378 -129.90122199 166.68056378 -129 174 C-128.46858398 173.63874023 -127.93716797 173.27748047 -127.38964844 172.90527344 C-101.32040335 155.23177666 -74.28663421 139.84140722 -46 126 C-48.77345667 123.76300909 -51.32692199 122.3101715 -54.65625 121.0546875 C-55.58268311 120.70422363 -56.50911621 120.35375977 -57.46362305 119.99267578 C-58.46562744 119.62384277 -59.46763184 119.25500977 -60.5 118.875 C-62.06971558 118.29274658 -62.06971558 118.29274658 -63.67114258 117.69873047 C-71.95323585 114.66677846 -80.29799212 111.84436551 -88.6875 109.125 C-89.81929687 108.75616699 -90.95109375 108.38733398 -92.1171875 108.00732422 C-99.66762902 105.60078695 -107.25346917 103.66696491 -115 102 Z M7.125 115.625 C5.55117554 116.16435181 5.55117554 116.16435181 3.94555664 116.71459961 C-2.88732586 119.11169135 -9.45929959 121.89498193 -16 125 C-13.16254237 127.24418963 -10.32337103 128.95821723 -7.08984375 130.57421875 C-6.11345947 131.06865479 -5.1370752 131.56309082 -4.13110352 132.07250977 C-3.07721436 132.60545654 -2.0233252 133.13840332 -0.9375 133.6875 C17.60452536 143.20643704 35.64914368 153.68163129 52.79858398 165.54711914 C56.09331898 168.10324759 56.09331898 168.10324759 60 169 C59.42580012 160.27757672 57.99444185 151.82129084 56.3125 143.25 C56.18260681 142.58056366 56.05271362 141.91112732 55.91888428 141.22140503 C53.47555028 128.6718583 50.46283736 116.3092177 47 104 C34.4569383 104 18.87303073 111.5728649 7.125 115.625 Z M-39.05078125 134.47265625 C-40.21134033 135.03525146 -41.37189941 135.59784668 -42.56762695 136.17749023 C-43.81643794 136.80479275 -45.06471613 137.4331569 -46.3125 138.0625 C-47.6133061 138.70625384 -48.91433473 139.34955821 -50.21557617 139.99243164 C-93.8302402 160.97462873 -93.8302402 160.97462873 -132 190 C-134.34228427 206.49011038 -134.32162957 223.41182551 -134.26074219 240.03173828 C-134.25000247 243.4992011 -134.26073444 246.96614616 -134.2734375 250.43359375 C-134.28406359 262.08604787 -134.02173276 273.71895446 -133.32421875 285.3515625 C-133.2755365 286.43618774 -133.22685425 287.52081299 -133.17669678 288.63830566 C-132.73749438 295.12987195 -132.73749438 295.12987195 -129.4206543 300.53662109 C-126.38338959 303.03104426 -126.38338959 303.03104426 -123.0078125 304.9375 C-120.08488273 306.41139355 -117.35340367 308.01308193 -114.6171875 309.8125 C-109.80504336 312.97626567 -104.9121057 315.99452899 -100 319 C-99.20174805 319.49258301 -98.40349609 319.98516602 -97.58105469 320.49267578 C-79.99440773 331.33145718 -61.90029352 341.23328327 -43.375 350.375 C-42.42133545 350.85783447 -41.4676709 351.34066895 -40.48510742 351.83813477 C-39.59025635 352.27053467 -38.69540527 352.70293457 -37.7734375 353.1484375 C-36.99403809 353.53177246 -36.21463867 353.91510742 -35.41162109 354.31005859 C-29.89128387 355.88937354 -25.27078717 353.39513162 -20.36328125 350.96484375 C-19.73477768 350.65473358 -19.10627411 350.34462341 -18.45872498 350.02511597 C-16.4047265 349.0060665 -14.35813142 347.9732338 -12.3125 346.9375 C-11.606698 346.58263519 -10.900896 346.22777039 -10.17370605 345.8621521 C11.40029292 334.99098837 31.92694267 322.43275254 52 309 C52.59200195 308.60925293 53.18400391 308.21850586 53.79394531 307.81591797 C59.6160461 304.41109628 59.6160461 304.41109628 63 299 C65.19651238 282.01327171 65.31971656 264.78455391 65.26074219 247.68652344 C65.2500052 244.00178591 65.26072819 240.31753564 65.2734375 236.6328125 C65.28106441 224.55580218 64.9941925 212.54708169 64.109375 200.5 C64.03189026 199.41372314 63.95440552 198.32744629 63.87457275 197.20825195 C63.79189148 196.20109131 63.70921021 195.19393066 63.62402344 194.15625 C63.51643707 192.83850586 63.51643707 192.83850586 63.40667725 191.49414062 C62.73571477 187.37914576 61.85456424 184.71414206 58.62426758 182.01464844 C57.64095459 181.3859082 56.6576416 180.75716797 55.64453125 180.109375 C54.55519287 179.40466064 53.46585449 178.69994629 52.34350586 177.97387695 C51.16686508 177.23201149 49.98985523 176.49073111 48.8125 175.75 C47.6082758 174.9802386 46.40458298 174.20964528 45.20141602 173.43823242 C41.81301376 171.27260329 38.40883385 169.13332184 35 167 C34.24364258 166.52449707 33.48728516 166.04899414 32.70800781 165.55908203 C28.52589933 162.9444529 24.28095252 160.44807208 20 158 C19.11054688 157.48904785 18.22109375 156.9780957 17.3046875 156.45166016 C5.93966215 149.94384783 -5.50328064 143.60618702 -17.1875 137.6875 C-18.54016968 136.99454834 -18.54016968 136.99454834 -19.92016602 136.28759766 C-20.76506592 135.86655762 -21.60996582 135.44551758 -22.48046875 135.01171875 C-23.21160889 134.64522217 -23.94274902 134.27872559 -24.69604492 133.90112305 C-30.32301799 131.70030101 -33.62727701 131.81144957 -39.05078125 134.47265625 Z M75 195 C75.03029297 195.62825684 75.06058594 196.25651367 75.09179688 196.90380859 C76.55654531 228.5705431 76.6040178 260.33771238 75 292 C89.32902887 281.30281358 102.9434007 269.90406856 116 257.6875 C116.70584229 257.03007812 117.41168457 256.37265625 118.13891602 255.6953125 C122.3964168 251.67679192 126.26599161 247.50998201 130 243 C127.00428676 239.97489042 124.00265195 236.95572125 121 233.9375 C119.74123047 232.66616211 119.74123047 232.66616211 118.45703125 231.36914062 C113.47055757 226.36333953 108.38709763 221.57089274 103 217 C101.95572001 216.09896894 100.9114486 215.19792795 99.8671875 214.296875 C94.07375472 209.36565024 88.22312894 204.52513097 82.25 199.8125 C81.64140137 199.33071289 81.03280273 198.84892578 80.40576172 198.35253906 C77.96523417 196.03471678 77.96523417 196.03471678 75 195 Z M-152.4375 205.4375 C-153.70865714 206.54669504 -154.9808035 207.65475737 -156.25390625 208.76171875 C-156.88699707 209.31263184 -157.52008789 209.86354492 -158.17236328 210.43115234 C-160.69378594 212.59554748 -163.28142301 214.67295588 -165.875 216.75 C-169.87117211 219.99140461 -173.52076405 223.40724152 -177.1015625 227.09765625 C-179.62724223 229.62853286 -182.32481985 231.9285333 -185.03515625 234.2578125 C-188.16363209 237.03176921 -191.08580113 240.00383929 -194 243 C-185.98195723 252.85073826 -176.72569096 261.84524642 -167 270 C-165.97984942 270.87167152 -164.9603775 271.74413764 -163.94140625 272.6171875 C-154.55667778 282.20888743 -154.55667778 282.20888743 -144 288 C-144.03029297 287.4009082 -144.06058594 286.80181641 -144.09179688 286.18457031 C-145.49105297 257.45676639 -145.45247715 228.72505336 -144 200 C-147.52719144 200 -149.89327681 203.1893049 -152.4375 205.4375 Z M-130 314 C-126.78554501 338.04204575 -122.88594041 361.99687549 -115 385 C-103.82174754 382.57518181 -92.99028816 379.58031467 -82.16064453 375.90087891 C-79.87180217 375.12391447 -77.57891657 374.35996408 -75.28515625 373.59765625 C-58.76700765 369.43310622 -58.76700765 369.43310622 -46 361 C-46.86496094 360.57332031 -47.72992188 360.14664063 -48.62109375 359.70703125 C-53.09154923 357.49277872 -57.54647566 355.2480709 -62 353 C-63.40620605 352.29254639 -63.40620605 352.29254639 -64.84082031 351.57080078 C-84.8818402 341.45176075 -104.09321961 330.28301847 -122.59545898 317.55444336 C-125.98834513 314.93608512 -125.98834513 314.93608512 -130 314 Z M55.2734375 320.30859375 C54.49669678 320.80375488 53.71995605 321.29891602 52.91967773 321.80908203 C52.07993408 322.34645996 51.24019043 322.88383789 50.375 323.4375 C28.83785008 337.11679975 6.66807046 349.29311472 -16 361 C-14.57032152 363.85935696 -12.88173521 363.99529059 -9.91015625 365.1015625 C-8.82782715 365.50568359 -7.74549805 365.90980469 -6.63037109 366.32617188 C-4.8642749 366.9690918 -4.8642749 366.9690918 -3.0625 367.625 C-1.85932129 368.06650391 -0.65614258 368.50800781 0.58349609 368.96289062 C15.7671782 374.461215 31.17262658 379.70948577 47 383 C50.7254532 370.41008192 53.80906782 357.75997016 56.3125 344.875 C56.69365967 342.93935181 56.69365967 342.93935181 57.08251953 340.96459961 C58.53357378 333.31820461 59.54064123 325.77029269 60 318 C58.18652002 318 56.75986002 319.35628435 55.2734375 320.30859375 Z M-43.125 372.875 C-65.09251698 382.62512141 -87.83945889 389.72846165 -111 396 C-109.69831063 402.78933769 -107.66372993 408.74868349 -104.875 415.0625 C-104.47684082 415.97499512 -104.07868164 416.88749023 -103.66845703 417.82763672 C-92.01288728 444.27805899 -77.07990514 472.60723552 -49.5234375 485.125 C-47.35449308 485.92206791 -45.25785233 486.51325285 -43 487 C-42.2471875 487.16371094 -41.494375 487.32742188 -40.71875 487.49609375 C-29.18496429 489.31229053 -17.40585684 485.65292313 -8 479 C-3.77691674 475.53007809 0.13624989 471.86375011 4 468 C4.72058594 467.27941406 5.44117188 466.55882812 6.18359375 465.81640625 C23.91654307 446.94169762 37.49346531 419.06526446 43 394 C37.05850933 391.98225239 31.0898122 390.10509683 25.08105469 388.29833984 C8.00036663 383.1465757 -8.95630902 377.63053476 -25.125 370.03125 C-32.09015484 367.53287924 -36.78830783 369.94176087 -43.125 372.875 Z " fill="#000000" transform="translate(289,12)"/>
<path d="M0 0 C14.62535787 11.75570037 25.47570481 28.07958184 28 47 C29.81345016 69.08828995 26.24026861 89.46988874 11.6875 106.875 C0.48204157 119.66032541 -14.18550488 128.72901301 -31 132 C-32.38832031 132.27263672 -32.38832031 132.27263672 -33.8046875 132.55078125 C-54.41284186 135.44801566 -74.2018142 130.20338792 -91 118 C-102.87009612 108.8829081 -110.62210976 96.85840946 -116 83 C-116.3403125 82.12859375 -116.680625 81.2571875 -117.03125 80.359375 C-122.7550643 62.23396305 -119.8972712 40.86143821 -111.3125 24.25 C-101.55644434 6.53391577 -86.76143806 -5.53830264 -67.7421875 -12.12890625 C-65.16540586 -12.8556008 -62.62721447 -13.48891808 -60 -14 C-59.07445312 -14.18175781 -58.14890625 -14.36351562 -57.1953125 -14.55078125 C-36.66139783 -17.43757855 -16.69309447 -12.27503656 0 0 Z " fill="#000000" transform="translate(300,197)"/>
<path d="M0 0 C6.42144486 5.05518 9.98844794 11.92722201 11.25 19.875 C11.93711997 28.53271157 9.72628532 36.02964335 4.25 42.875 C-2.25084364 49.6411842 -8.28622319 51.99052165 -17.625 52.375 C-25.81061198 52.19075793 -31.30917792 49.70412038 -37.5625 44.5625 C-44.87387417 35.5799546 -46.72051359 28.50749392 -45.75 16.875 C-43.8702746 9.71056092 -39.64376971 3.28751221 -33.31640625 -0.6328125 C-22.30553902 -6.3591179 -10.75787539 -6.87837608 0 0 Z " fill="#000000" transform="translate(220.75,13.125)"/>
<path d="M0 0 C7.40328115 4.34834983 12.79464194 11.10876307 15.1875 19.375 C16.20029768 27.88250053 15.61100279 35.5170643 10.61328125 42.71875 C4.55148866 49.91250036 -1.19580902 53.56637345 -10.5 54.875 C-19.5997071 55.42351403 -26.55470824 52.9269971 -33.5 47 C-40.42954174 39.56703001 -41.97516321 32.52449212 -41.81640625 22.48046875 C-41.13088827 14.93977101 -37.70924778 9.33327749 -32.5 4 C-23.35532714 -3.00443027 -10.66608303 -4.85862985 0 0 Z " fill="#000000" transform="translate(418.5,383)"/>
<path d="M0 0 C7.23539377 4.28094131 12.97976336 10.53111738 15.16015625 18.75390625 C16.83004612 28.33550732 14.95031831 36.68871923 9.75 44.9375 C3.39121738 51.11460311 -2.57990129 54.02042956 -11.4375 55.0625 C-19.96646688 54.92317032 -27.16973248 53.01435181 -33.4375 47.0625 C-39.60644612 39.63051535 -41.92527115 32.79684107 -41.7578125 23.16796875 C-41.06532788 16.45424591 -38.37791305 9.74289131 -33.4375 5.0625 C-23.3362649 -1.72712755 -11.76282124 -5.33174608 0 0 Z " fill="#000000" transform="translate(124.4375,382.9375)"/>
</svg>
