<?xml version="1.0" encoding="UTF-8"?>
<svg version="1.1" xmlns="http://www.w3.org/2000/svg" width="16" height="16">
<path d="M0 0 C1.65 0 3.3 0 5 0 C5.33 0.99 5.66 1.98 6 3 C7.65 3.33 9.3 3.66 11 4 C11.51906355 9.19063545 11.51906355 9.19063545 11 12 C8.3125 14.5625 8.3125 14.5625 5 16 C2.4375 15.9375 2.4375 15.9375 0 15 C-0.928125 14.649375 -1.85625 14.29875 -2.8125 13.9375 C-5 12 -5 12 -5.3125 10.0234375 C-5.3125 8.0129247 -5.1642453 6.00379271 -5 4 C-4.360625 3.71125 -3.72125 3.4225 -3.0625 3.125 C-0.84793921 2.17176549 -0.84793921 2.17176549 0 0 Z M3 1 C2.34 1.66 1.68 2.32 1 3 C1.99 3 2.98 3 4 3 C3.67 2.34 3.34 1.68 3 1 Z M-3 4 C-3 4.66 -3 5.32 -3 6 C-2.34 6 -1.68 6 -1 6 C-1 5.34 -1 4.68 -1 4 C-1.66 4 -2.32 4 -3 4 Z M7 4 C7 4.66 7 5.32 7 6 C7.66 6 8.32 6 9 6 C9 5.34 9 4.68 9 4 C8.34 4 7.68 4 7 4 Z M-3 10 C-2.67 10.66 -2.34 11.32 -2 12 C-1.67 11.34 -1.34 10.68 -1 10 C-1.66 10 -2.32 10 -3 10 Z M7 10 C7.66 10.66 8.32 11.32 9 12 C9 11.34 9 10.68 9 10 C8.34 10 7.68 10 7 10 Z M2 13 C2 13.66 2 14.32 2 15 C2.66 15 3.32 15 4 15 C4 14.34 4 13.68 4 13 C3.34 13 2.68 13 2 13 Z " fill="#000000" transform="translate(5,0)"/>
</svg>
